<svg width="299" height="62" viewBox="0 0 299 62" fill="none" xmlns="http://www.w3.org/2000/svg">
<g filter="url(#filter0_d_756_291)">
<mask id="path-1-inside-1_756_291" fill="white">
<path d="M4 27C4 12.0883 16.0883 0 31 0H267.202C282.113 0 294.202 12.0883 294.202 27C294.202 41.9117 282.113 54 267.202 54H31C16.0883 54 4 41.9117 4 27Z"/>
</mask>
<path d="M4 27C4 12.0883 16.0883 0 31 0H267.202C282.113 0 294.202 12.0883 294.202 27C294.202 41.9117 282.113 54 267.202 54H31C16.0883 54 4 41.9117 4 27Z" fill="url(#paint0_linear_756_291)"/>
<path d="M31 1H267.202V-1H31V1ZM267.202 53H31V55H267.202V53ZM31 53C16.6406 53 5 41.3594 5 27H3C3 42.464 15.5361 55 31 55V53ZM293.202 27C293.202 41.3594 281.561 53 267.202 53V55C282.665 55 295.202 42.464 295.202 27H293.202ZM267.202 1C281.561 1 293.202 12.6406 293.202 27H295.202C295.202 11.536 282.665 -1 267.202 -1V1ZM31 -1C15.536 -1 3 11.536 3 27H5C5 12.6406 16.6406 1 31 1V-1Z" fill="url(#paint1_linear_756_291)" mask="url(#path-1-inside-1_756_291)"/>
<path d="M36.5631 19.72H39.7031L41.9631 29.44H42.0031L44.4831 19.72H47.4231L49.8631 29.56H49.9031L52.2431 19.72H55.3231L51.4831 34H48.3631L45.9431 24.28H45.9031L43.5231 34H40.3431L36.5631 19.72ZM56.4698 19.72H59.3098V25.1H59.3698C60.0098 24.04 61.2098 23.38 62.4098 23.38C65.0298 23.38 66.1698 24.68 66.1698 27.54V34H63.3298V28.12C63.3298 26.44 62.8298 25.62 61.5098 25.62C59.7698 25.62 59.3098 26.76 59.3098 28.58V34H56.4698V19.72ZM73.0853 23.38C76.1053 23.38 77.6053 24.4 77.6053 26.32V31.8C77.6053 32.62 77.7053 33.58 77.9653 34H75.0853C74.9853 33.68 74.9053 33.34 74.8853 33C74.0853 33.84 72.8653 34.28 71.4053 34.28C69.2853 34.28 67.8853 33.18 67.8853 31.18C67.8853 29.68 68.6053 28.7 70.2653 28.26C71.3253 27.98 72.6653 27.92 73.5453 27.74C74.3853 27.56 74.7653 27.28 74.7653 26.66C74.7653 25.48 73.9053 25.28 72.9453 25.28C71.7653 25.28 71.1453 25.76 71.0453 26.84H68.2053C68.3253 24.58 70.1853 23.38 73.0853 23.38ZM70.7253 31.06C70.7253 31.88 71.2253 32.38 72.4653 32.38C73.9853 32.38 74.7653 31.56 74.7653 30.04V28.94C74.5053 29.18 74.0053 29.32 73.0453 29.44C71.5853 29.62 70.7253 29.98 70.7253 31.06ZM80.5697 20.56H83.4097V23.66H85.4897V25.56H83.4097V30.68C83.4097 31.64 83.6497 31.88 84.6097 31.88C84.9297 31.88 85.2497 31.86 85.4897 31.8V34.02C85.0097 34.1 84.3697 34.12 83.8097 34.12C81.6697 34.12 80.5697 33.46 80.5697 31.62V25.56H78.8497V23.66H80.5697V20.56ZM91.3873 19.72H94.5273L96.7873 29.44H96.8273L99.3073 19.72H102.247L104.687 29.56H104.727L107.067 19.72H110.147L106.307 34H103.187L100.767 24.28H100.727L98.3473 34H95.1673L91.3873 19.72ZM115.332 23.38C117.972 23.38 119.572 25.04 120.132 27.16C120.312 27.84 120.372 28.48 120.372 28.98L120.352 29.52H112.892C112.972 31.3 113.852 32.14 115.412 32.14C116.492 32.14 117.452 31.52 117.672 30.8H120.172C119.392 33.14 117.812 34.28 115.332 34.28C112.052 34.28 110.052 32.02 110.052 28.84C110.052 25.72 112.212 23.38 115.332 23.38ZM112.892 27.72H117.512C117.232 26.16 116.552 25.52 115.232 25.52C113.892 25.52 113.012 26.36 112.892 27.72ZM127.903 19.72H134.643C137.563 19.72 139.183 20.78 139.183 23.24C139.183 24.72 138.463 25.64 137.243 26.24C139.003 26.74 139.863 28.08 139.863 29.86C139.863 32.7 137.483 34 134.823 34H127.903V19.72ZM131.043 25.5H134.243C135.383 25.5 136.143 24.96 136.143 23.8C136.143 22.66 135.383 22.16 134.023 22.16H131.043V25.5ZM131.043 31.56H134.423C135.883 31.56 136.723 30.96 136.723 29.68C136.723 28.3 135.903 27.64 134.483 27.64H131.043V31.56ZM146.465 23.38C149.105 23.38 150.705 25.04 151.265 27.16C151.445 27.84 151.505 28.48 151.505 28.98L151.485 29.52H144.025C144.105 31.3 144.985 32.14 146.545 32.14C147.625 32.14 148.585 31.52 148.805 30.8H151.305C150.525 33.14 148.945 34.28 146.465 34.28C143.185 34.28 141.185 32.02 141.185 28.84C141.185 25.72 143.345 23.38 146.465 23.38ZM144.025 27.72H148.645C148.365 26.16 147.685 25.52 146.365 25.52C145.025 25.52 144.145 26.36 144.025 27.72ZM153.249 19.72H156.089V34H153.249V19.72ZM158.405 19.72H161.245V22.06H158.405V19.72ZM158.405 23.66H161.245V34H158.405V23.66ZM168.262 23.38C170.902 23.38 172.502 25.04 173.062 27.16C173.242 27.84 173.302 28.48 173.302 28.98L173.282 29.52H165.822C165.902 31.3 166.782 32.14 168.342 32.14C169.422 32.14 170.382 31.52 170.602 30.8H173.102C172.322 33.14 170.742 34.28 168.262 34.28C164.982 34.28 162.982 32.02 162.982 28.84C162.982 25.72 165.142 23.38 168.262 23.38ZM165.822 27.72H170.442C170.162 26.16 169.482 25.52 168.162 25.52C166.822 25.52 165.942 26.36 165.822 27.72ZM173.986 23.66H176.966L179.146 30.72H179.186L181.366 23.66H184.186L180.686 34H177.526L173.986 23.66ZM190.137 23.38C192.777 23.38 194.377 25.04 194.937 27.16C195.117 27.84 195.177 28.48 195.177 28.98L195.157 29.52H187.697C187.777 31.3 188.657 32.14 190.217 32.14C191.297 32.14 192.257 31.52 192.477 30.8H194.977C194.197 33.14 192.617 34.28 190.137 34.28C186.857 34.28 184.857 32.02 184.857 28.84C184.857 25.72 187.017 23.38 190.137 23.38ZM187.697 27.72H192.317C192.037 26.16 191.357 25.52 190.037 25.52C188.697 25.52 187.817 26.36 187.697 27.72ZM207.547 19.56C209.647 19.56 211.447 20.72 211.447 22.98C211.447 24.46 210.587 25.64 208.907 26.54L210.747 28.8C211.007 28.34 211.187 27.68 211.267 27.1H213.727C213.567 28.56 213.047 29.72 212.347 30.62L215.247 34H211.767L210.607 32.58C209.467 33.7 208.207 34.28 206.587 34.28C203.927 34.28 201.967 32.62 201.967 30C201.967 28.32 203.047 26.86 205.167 25.86C204.107 24.62 203.807 23.76 203.807 22.82C203.807 20.9 205.527 19.56 207.547 19.56ZM206.387 22.72C206.387 23.32 206.587 23.82 207.507 24.86C208.527 24.24 208.967 23.7 208.967 22.82C208.967 22.08 208.387 21.46 207.647 21.46C206.987 21.46 206.387 21.96 206.387 22.72ZM204.667 30.06C204.667 31.1 205.647 31.94 206.707 31.94C207.547 31.94 208.287 31.6 209.107 30.68L206.667 27.7C205.387 28.24 204.667 29.06 204.667 30.06ZM220.645 19.72H223.785L226.045 29.44H226.085L228.565 19.72H231.505L233.945 29.56H233.985L236.325 19.72H239.405L235.565 34H232.445L230.025 24.28H229.985L227.605 34H224.425L220.645 19.72ZM240.552 19.72H243.392V25.1H243.452C244.092 24.04 245.292 23.38 246.492 23.38C249.112 23.38 250.252 24.68 250.252 27.54V34H247.412V28.12C247.412 26.44 246.912 25.62 245.592 25.62C243.852 25.62 243.392 26.76 243.392 28.58V34H240.552V19.72ZM251.207 23.66H254.247L256.587 30.74H256.627L258.887 23.66H261.827L257.507 35.3C256.907 36.92 255.907 37.64 253.987 37.64C253.307 37.64 252.807 37.6 252.207 37.54V35.2C252.807 35.26 253.307 35.3 253.707 35.3C254.507 35.3 254.967 34.74 254.967 34C254.967 33.82 254.947 33.64 254.847 33.36L251.207 23.66Z" fill="black"/>
</g>
<defs>
<filter id="filter0_d_756_291" x="0" y="0" width="298.202" height="62" filterUnits="userSpaceOnUse" color-interpolation-filters="sRGB">
<feFlood flood-opacity="0" result="BackgroundImageFix"/>
<feColorMatrix in="SourceAlpha" type="matrix" values="0 0 0 0 0 0 0 0 0 0 0 0 0 0 0 0 0 0 127 0" result="hardAlpha"/>
<feOffset dy="4"/>
<feGaussianBlur stdDeviation="2"/>
<feComposite in2="hardAlpha" operator="out"/>
<feColorMatrix type="matrix" values="0 0 0 0 0 0 0 0 0 0 0 0 0 0 0 0 0 0 0.15 0"/>
<feBlend mode="normal" in2="BackgroundImageFix" result="effect1_dropShadow_756_291"/>
<feBlend mode="normal" in="SourceGraphic" in2="effect1_dropShadow_756_291" result="shape"/>
</filter>
<linearGradient id="paint0_linear_756_291" x1="-643.373" y1="-183.808" x2="-357.985" y2="397.568" gradientUnits="userSpaceOnUse">
<stop stop-color="#979797"/>
<stop offset="1" stop-color="white"/>
</linearGradient>
<linearGradient id="paint1_linear_756_291" x1="-353.171" y1="-19" x2="-51.9297" y2="322.628" gradientUnits="userSpaceOnUse">
<stop stop-color="#67943F"/>
<stop offset="0.307292" stop-color="#0892A7"/>
<stop offset="0.604167" stop-color="#FAD40E"/>
<stop offset="1" stop-color="#B4323F"/>
</linearGradient>
</defs>
</svg>
