<svg width="337" height="60" viewBox="0 0 337 60" fill="none" xmlns="http://www.w3.org/2000/svg">
<g filter="url(#filter0_d_754_270)">
<rect x="4" width="329" height="52" rx="26" fill="url(#paint0_linear_754_270)"/>
<rect x="4.5" y="0.5" width="328" height="51" rx="25.5" stroke="#DC8F24"/>
<path d="M44.2292 18.38C48.5692 18.38 51.2492 21.6 51.2492 25.92C51.2492 30.08 48.6092 33.34 44.2292 33.34C39.8692 33.34 37.2092 30.08 37.2092 25.92C37.2092 21.68 39.8092 18.38 44.2292 18.38ZM40.3492 25.92C40.3492 28.58 41.6092 30.7 44.2292 30.7C46.8892 30.7 48.1092 28.52 48.1092 25.92C48.1092 23.18 46.8892 21.02 44.2092 21.02C41.5892 21.02 40.3492 23.16 40.3492 25.92ZM53.0956 22.66H55.9356V28.52C55.9356 30.1 56.3556 31.04 57.7556 31.04C59.3156 31.04 59.9556 30.14 59.9556 28.1V22.66H62.7956V33H60.0956V31.56H60.0356C59.3156 32.72 58.1156 33.28 56.8556 33.28C54.1556 33.28 53.0956 31.92 53.0956 29.08V22.66ZM70.9911 22.38C71.2711 22.38 71.4711 22.44 71.6111 22.48V25.12C71.3311 25.06 70.9911 25.02 70.5911 25.02C68.5311 25.02 67.7911 26.48 67.7911 28.34V33H64.9511V22.66H67.6511V24.58H67.6911C68.2311 23.28 69.5711 22.38 70.9911 22.38ZM78.5909 18.72H88.6309V21.36H81.7309V24.66H87.7109V27.1H81.7309V33H78.5909V18.72ZM94.9064 22.38C97.9264 22.38 99.4264 23.4 99.4264 25.32V30.8C99.4264 31.62 99.5264 32.58 99.7864 33H96.9064C96.8064 32.68 96.7264 32.34 96.7064 32C95.9064 32.84 94.6864 33.28 93.2264 33.28C91.1064 33.28 89.7064 32.18 89.7064 30.18C89.7064 28.68 90.4264 27.7 92.0864 27.26C93.1464 26.98 94.4864 26.92 95.3664 26.74C96.2064 26.56 96.5864 26.28 96.5864 25.66C96.5864 24.48 95.7264 24.28 94.7664 24.28C93.5864 24.28 92.9664 24.76 92.8664 25.84H90.0264C90.1464 23.58 92.0064 22.38 94.9064 22.38ZM92.5464 30.06C92.5464 30.88 93.0464 31.38 94.2864 31.38C95.8064 31.38 96.5864 30.56 96.5864 29.04V27.94C96.3264 28.18 95.8264 28.32 94.8664 28.44C93.4064 28.62 92.5464 28.98 92.5464 30.06ZM106.591 22.38C109.231 22.38 111.291 23.82 111.451 26.3H108.671C108.491 25.12 107.751 24.52 106.571 24.52C104.851 24.52 104.151 26.2 104.151 27.88C104.151 29.58 104.851 31.14 106.511 31.14C107.771 31.14 108.571 30.38 108.771 29.04H111.511C111.131 31.76 109.291 33.28 106.531 33.28C103.311 33.28 101.311 30.98 101.311 27.98C101.311 24.68 103.311 22.38 106.591 22.38ZM117.895 22.38C120.535 22.38 122.135 24.04 122.695 26.16C122.875 26.84 122.935 27.48 122.935 27.98L122.915 28.52H115.455C115.535 30.3 116.415 31.14 117.975 31.14C119.055 31.14 120.015 30.52 120.235 29.8H122.735C121.955 32.14 120.375 33.28 117.895 33.28C114.615 33.28 112.615 31.02 112.615 27.84C112.615 24.72 114.775 22.38 117.895 22.38ZM115.455 26.72H120.075C119.795 25.16 119.115 24.52 117.795 24.52C116.455 24.52 115.575 25.36 115.455 26.72ZM124.58 26.32H130.6V28.76H124.58V26.32ZM133.504 19.56H136.344V22.66H138.424V24.56H136.344V29.68C136.344 30.64 136.584 30.88 137.544 30.88C137.864 30.88 138.184 30.86 138.424 30.8V33.02C137.944 33.1 137.304 33.12 136.744 33.12C134.604 33.12 133.504 32.46 133.504 30.62V24.56H131.784V22.66H133.504V19.56ZM144.795 22.38C148.075 22.38 150.155 24.56 150.155 27.84C150.155 31.18 147.975 33.28 144.795 33.28C141.535 33.28 139.455 31.1 139.455 27.84C139.455 24.54 141.555 22.38 144.795 22.38ZM142.295 27.84C142.295 29.94 143.175 31.14 144.795 31.14C146.475 31.14 147.315 29.88 147.315 27.84C147.315 26.16 146.735 24.52 144.775 24.52C143.195 24.52 142.295 25.72 142.295 27.84ZM151.982 26.32H158.002V28.76H151.982V26.32ZM160.446 18.72H170.486V21.36H163.586V24.66H169.566V27.1H163.586V33H160.446V18.72ZM176.762 22.38C179.782 22.38 181.282 23.4 181.282 25.32V30.8C181.282 31.62 181.382 32.58 181.642 33H178.762C178.662 32.68 178.582 32.34 178.562 32C177.762 32.84 176.542 33.28 175.082 33.28C172.962 33.28 171.562 32.18 171.562 30.18C171.562 28.68 172.282 27.7 173.942 27.26C175.002 26.98 176.342 26.92 177.222 26.74C178.062 26.56 178.442 26.28 178.442 25.66C178.442 24.48 177.582 24.28 176.622 24.28C175.442 24.28 174.822 24.76 174.722 25.84H171.882C172.002 23.58 173.862 22.38 176.762 22.38ZM174.402 30.06C174.402 30.88 174.902 31.38 176.142 31.38C177.662 31.38 178.442 30.56 178.442 29.04V27.94C178.182 28.18 177.682 28.32 176.722 28.44C175.262 28.62 174.402 28.98 174.402 30.06ZM188.446 22.38C191.086 22.38 193.146 23.82 193.306 26.3H190.526C190.346 25.12 189.606 24.52 188.426 24.52C186.706 24.52 186.006 26.2 186.006 27.88C186.006 29.58 186.706 31.14 188.366 31.14C189.626 31.14 190.426 30.38 190.626 29.04H193.366C192.986 31.76 191.146 33.28 188.386 33.28C185.166 33.28 183.166 30.98 183.166 27.98C183.166 24.68 185.166 22.38 188.446 22.38ZM199.751 22.38C202.391 22.38 203.991 24.04 204.551 26.16C204.731 26.84 204.791 27.48 204.791 27.98L204.771 28.52H197.311C197.391 30.3 198.271 31.14 199.831 31.14C200.911 31.14 201.871 30.52 202.091 29.8H204.591C203.811 32.14 202.231 33.28 199.751 33.28C196.471 33.28 194.471 31.02 194.471 27.84C194.471 24.72 196.631 22.38 199.751 22.38ZM197.311 26.72H201.931C201.651 25.16 200.971 24.52 199.651 24.52C198.311 24.52 197.431 25.36 197.311 26.72ZM212.321 18.72H223.001V21.36H215.461V24.42H222.381V26.86H215.461V30.36H223.161V33H212.321V18.72ZM224.23 22.66H227.47L229.29 25.36L231.09 22.66H234.23L230.83 27.5L234.65 33H231.41L229.25 29.74L227.09 33H223.91L227.63 27.56L224.23 22.66ZM241.552 22.38C244.692 22.38 246.252 24.86 246.252 27.94C246.252 30.78 244.692 33.28 241.712 33.28C240.432 33.28 239.292 32.72 238.612 31.72H238.572V36.64H235.732V22.66H238.432V23.98H238.472C239.152 22.9 240.212 22.38 241.552 22.38ZM238.472 27.86C238.472 29.72 239.232 31.14 240.952 31.14C242.712 31.14 243.412 29.7 243.412 27.86C243.412 26.28 242.812 24.52 240.912 24.52C239.352 24.52 238.472 25.76 238.472 27.86ZM252.739 22.38C255.379 22.38 256.979 24.04 257.539 26.16C257.719 26.84 257.779 27.48 257.779 27.98L257.759 28.52H250.299C250.379 30.3 251.259 31.14 252.819 31.14C253.899 31.14 254.859 30.52 255.079 29.8H257.579C256.799 32.14 255.219 33.28 252.739 33.28C249.459 33.28 247.459 31.02 247.459 27.84C247.459 24.72 249.619 22.38 252.739 22.38ZM250.299 26.72H254.919C254.639 25.16 253.959 24.52 252.639 24.52C251.299 24.52 250.419 25.36 250.299 26.72ZM265.483 22.38C265.763 22.38 265.963 22.44 266.103 22.48V25.12C265.823 25.06 265.483 25.02 265.083 25.02C263.023 25.02 262.283 26.48 262.283 28.34V33H259.443V22.66H262.143V24.58H262.183C262.723 23.28 264.063 22.38 265.483 22.38ZM267.977 19.56H270.817V22.66H272.897V24.56H270.817V29.68C270.817 30.64 271.057 30.88 272.017 30.88C272.337 30.88 272.657 30.86 272.897 30.8V33.02C272.417 33.1 271.777 33.12 271.217 33.12C269.077 33.12 267.977 32.46 267.977 30.62V24.56H266.257V22.66H267.977V19.56ZM274.328 18.72H277.168V21.06H274.328V18.72ZM274.328 22.66H277.168V33H274.328V22.66ZM283.644 22.38C286.444 22.38 288.024 23.54 288.204 25.68H285.504C285.424 24.68 284.744 24.28 283.564 24.28C282.464 24.28 281.984 24.62 281.984 25.24C281.984 25.9 282.604 26.24 284.204 26.56C286.304 26.98 287.064 27.3 287.684 27.82C288.224 28.3 288.484 28.9 288.484 29.68C288.484 32.34 286.184 33.28 283.764 33.28C280.944 33.28 278.984 32.08 278.904 29.64H281.604C281.604 30.8 282.604 31.38 283.784 31.38C284.744 31.38 285.644 30.96 285.644 30.06C285.644 29.3 284.764 28.94 282.524 28.48C280.124 27.98 279.144 27.16 279.144 25.7C279.144 23.5 280.744 22.38 283.644 22.38ZM294.926 22.38C297.566 22.38 299.166 24.04 299.726 26.16C299.906 26.84 299.966 27.48 299.966 27.98L299.946 28.52H292.486C292.566 30.3 293.446 31.14 295.006 31.14C296.086 31.14 297.046 30.52 297.266 29.8H299.766C298.986 32.14 297.406 33.28 294.926 33.28C291.646 33.28 289.646 31.02 289.646 27.84C289.646 24.72 291.806 22.38 294.926 22.38ZM292.486 26.72H297.106C296.826 25.16 296.146 24.52 294.826 24.52C293.486 24.52 292.606 25.36 292.486 26.72Z" fill="white"/>
</g>
<defs>
<filter id="filter0_d_754_270" x="0" y="0" width="337" height="60" filterUnits="userSpaceOnUse" color-interpolation-filters="sRGB">
<feFlood flood-opacity="0" result="BackgroundImageFix"/>
<feColorMatrix in="SourceAlpha" type="matrix" values="0 0 0 0 0 0 0 0 0 0 0 0 0 0 0 0 0 0 127 0" result="hardAlpha"/>
<feOffset dy="4"/>
<feGaussianBlur stdDeviation="2"/>
<feComposite in2="hardAlpha" operator="out"/>
<feColorMatrix type="matrix" values="0 0 0 0 0 0 0 0 0 0 0 0 0 0 0 0 0 0 0.25 0"/>
<feBlend mode="normal" in2="BackgroundImageFix" result="effect1_dropShadow_754_270"/>
<feBlend mode="normal" in="SourceGraphic" in2="effect1_dropShadow_754_270" result="shape"/>
</filter>
<linearGradient id="paint0_linear_754_270" x1="20.8718" y1="11" x2="175.924" y2="308.207" gradientUnits="userSpaceOnUse">
<stop/>
<stop offset="1" stop-color="#979797"/>
</linearGradient>
</defs>
</svg>
