<svg width="267" height="60" viewBox="0 0 267 60" fill="none" xmlns="http://www.w3.org/2000/svg">
<g filter="url(#filter0_d_756_307)">
<rect x="4" width="259" height="52" rx="26" fill="url(#paint0_linear_756_307)"/>
<rect x="4.5" y="0.5" width="258" height="51" rx="25.5" stroke="url(#paint1_linear_756_307)"/>
<g filter="url(#filter1_d_756_307)">
<path d="M37.6339 18.72H42.0539L45.3939 28.54H45.4339L48.5939 18.72H53.0139V33H50.0739V22.88H50.0339L46.5339 33H44.1139L40.6139 22.98H40.5739V33H37.6339V18.72ZM60.4984 22.38C63.7784 22.38 65.8584 24.56 65.8584 27.84C65.8584 31.18 63.6784 33.28 60.4984 33.28C57.2384 33.28 55.1584 31.1 55.1584 27.84C55.1584 24.54 57.2584 22.38 60.4984 22.38ZM57.9984 27.84C57.9984 29.94 58.8784 31.14 60.4984 31.14C62.1784 31.14 63.0184 29.88 63.0184 27.84C63.0184 26.16 62.4384 24.52 60.4784 24.52C58.8984 24.52 57.9984 25.72 57.9984 27.84ZM73.745 22.38C74.025 22.38 74.225 22.44 74.365 22.48V25.12C74.085 25.06 73.745 25.02 73.345 25.02C71.285 25.02 70.545 26.48 70.545 28.34V33H67.705V22.66H70.405V24.58H70.445C70.985 23.28 72.325 22.38 73.745 22.38ZM79.9069 22.38C82.5469 22.38 84.1469 24.04 84.7069 26.16C84.8869 26.84 84.9469 27.48 84.9469 27.98L84.9269 28.52H77.4669C77.5469 30.3 78.4269 31.14 79.9869 31.14C81.0669 31.14 82.0269 30.52 82.2469 29.8H84.7469C83.9669 32.14 82.3869 33.28 79.9069 33.28C76.6269 33.28 74.6269 31.02 74.6269 27.84C74.6269 24.72 76.7869 22.38 79.9069 22.38ZM77.4669 26.72H82.0869C81.8069 25.16 81.1269 24.52 79.8069 24.52C78.4669 24.52 77.5869 25.36 77.4669 26.72ZM92.4777 18.72H102.518V21.36H95.6177V24.66H101.598V27.1H95.6177V33H92.4777V18.72ZM110.073 22.38C110.353 22.38 110.553 22.44 110.693 22.48V25.12C110.413 25.06 110.073 25.02 109.673 25.02C107.613 25.02 106.873 26.48 106.873 28.34V33H104.033V22.66H106.733V24.58H106.773C107.313 23.28 108.653 22.38 110.073 22.38ZM116.475 22.38C119.755 22.38 121.835 24.56 121.835 27.84C121.835 31.18 119.655 33.28 116.475 33.28C113.215 33.28 111.135 31.1 111.135 27.84C111.135 24.54 113.235 22.38 116.475 22.38ZM113.975 27.84C113.975 29.94 114.855 31.14 116.475 31.14C118.155 31.14 118.995 29.88 118.995 27.84C118.995 26.16 118.415 24.52 116.455 24.52C114.875 24.52 113.975 25.72 113.975 27.84ZM129.642 22.38C131.182 22.38 132.182 23.02 132.662 24.1C133.422 23 134.542 22.38 135.802 22.38C138.362 22.38 139.562 23.78 139.562 26.06V33H136.722V27.02C136.722 25.66 136.522 24.62 134.982 24.62C133.642 24.62 133.082 25.56 133.082 27.22V33H130.242V26.9C130.242 25.56 130.042 24.62 128.522 24.62C127.862 24.62 126.602 25.08 126.602 26.98V33H123.762V22.66H126.442V24.06H126.482C127.282 22.92 128.362 22.38 129.642 22.38ZM154.073 18.38C158.413 18.38 161.093 21.6 161.093 25.92C161.093 30.08 158.453 33.34 154.073 33.34C149.713 33.34 147.053 30.08 147.053 25.92C147.053 21.68 149.653 18.38 154.073 18.38ZM150.193 25.92C150.193 28.58 151.453 30.7 154.073 30.7C156.733 30.7 157.953 28.52 157.953 25.92C157.953 23.18 156.733 21.02 154.053 21.02C151.433 21.02 150.193 23.16 150.193 25.92ZM162.939 22.66H165.779V28.52C165.779 30.1 166.199 31.04 167.599 31.04C169.159 31.04 169.799 30.14 169.799 28.1V22.66H172.639V33H169.939V31.56H169.879C169.159 32.72 167.959 33.28 166.699 33.28C163.999 33.28 162.939 31.92 162.939 29.08V22.66ZM180.835 22.38C181.115 22.38 181.315 22.44 181.455 22.48V25.12C181.175 25.06 180.835 25.02 180.435 25.02C178.375 25.02 177.635 26.48 177.635 28.34V33H174.795V22.66H177.495V24.58H177.535C178.075 23.28 179.415 22.38 180.835 22.38ZM188.435 18.72H195.175C198.095 18.72 199.715 19.78 199.715 22.24C199.715 23.72 198.995 24.64 197.775 25.24C199.535 25.74 200.395 27.08 200.395 28.86C200.395 31.7 198.015 33 195.355 33H188.435V18.72ZM191.575 24.5H194.775C195.915 24.5 196.675 23.96 196.675 22.8C196.675 21.66 195.915 21.16 194.555 21.16H191.575V24.5ZM191.575 30.56H194.955C196.415 30.56 197.255 29.96 197.255 28.68C197.255 27.3 196.435 26.64 195.015 26.64H191.575V30.56ZM202.297 18.72H205.137V33H202.297V18.72ZM212.393 22.38C215.673 22.38 217.753 24.56 217.753 27.84C217.753 31.18 215.573 33.28 212.393 33.28C209.133 33.28 207.053 31.1 207.053 27.84C207.053 24.54 209.153 22.38 212.393 22.38ZM209.893 27.84C209.893 29.94 210.773 31.14 212.393 31.14C214.073 31.14 214.913 29.88 214.913 27.84C214.913 26.16 214.333 24.52 212.373 24.52C210.793 24.52 209.893 25.72 209.893 27.84ZM223.72 22.38C225.2 22.38 226.16 22.94 226.8 24.04H226.84V22.66H229.54V32.36C229.54 35.04 227.98 36.92 224.2 36.92C221.8 36.92 219.74 35.74 219.62 33.6H222.44C222.68 34.6 223.46 35.02 224.56 35.02C226.02 35.02 226.84 34.1 226.84 32.52V31.1H226.8C226.24 32.08 225.1 32.7 223.7 32.7C220.72 32.7 219.28 30.52 219.28 27.5C219.28 24.86 220.78 22.38 223.72 22.38ZM222.12 27.46C222.12 29.14 222.78 30.56 224.42 30.56C225.96 30.56 226.84 29.3 226.84 27.68C226.84 26.24 226.4 24.52 224.4 24.52C222.94 24.52 222.12 25.76 222.12 27.46Z" fill="white"/>
</g>
</g>
<defs>
<filter id="filter0_d_756_307" x="0" y="0" width="267" height="60" filterUnits="userSpaceOnUse" color-interpolation-filters="sRGB">
<feFlood flood-opacity="0" result="BackgroundImageFix"/>
<feColorMatrix in="SourceAlpha" type="matrix" values="0 0 0 0 0 0 0 0 0 0 0 0 0 0 0 0 0 0 127 0" result="hardAlpha"/>
<feOffset dy="4"/>
<feGaussianBlur stdDeviation="2"/>
<feComposite in2="hardAlpha" operator="out"/>
<feColorMatrix type="matrix" values="0 0 0 0 0 0 0 0 0 0 0 0 0 0 0 0 0 0 0.25 0"/>
<feBlend mode="normal" in2="BackgroundImageFix" result="effect1_dropShadow_756_307"/>
<feBlend mode="normal" in="SourceGraphic" in2="effect1_dropShadow_756_307" result="shape"/>
</filter>
<filter id="filter1_d_756_307" x="33.6339" y="18.38" width="199.906" height="26.54" filterUnits="userSpaceOnUse" color-interpolation-filters="sRGB">
<feFlood flood-opacity="0" result="BackgroundImageFix"/>
<feColorMatrix in="SourceAlpha" type="matrix" values="0 0 0 0 0 0 0 0 0 0 0 0 0 0 0 0 0 0 127 0" result="hardAlpha"/>
<feOffset dy="4"/>
<feGaussianBlur stdDeviation="2"/>
<feComposite in2="hardAlpha" operator="out"/>
<feColorMatrix type="matrix" values="0 0 0 0 0 0 0 0 0 0 0 0 0 0 0 0 0 0 0.25 0"/>
<feBlend mode="normal" in2="BackgroundImageFix" result="effect1_dropShadow_756_307"/>
<feBlend mode="normal" in="SourceGraphic" in2="effect1_dropShadow_756_307" result="shape"/>
</filter>
<linearGradient id="paint0_linear_756_307" x1="17.2821" y1="11" x2="191.386" y2="273.719" gradientUnits="userSpaceOnUse">
<stop/>
<stop offset="1" stop-color="#979797"/>
</linearGradient>
<linearGradient id="paint1_linear_756_307" x1="263" y1="33.5" x2="14.1205" y2="-323.453" gradientUnits="userSpaceOnUse">
<stop stop-color="#67943F"/>
<stop offset="0.357328" stop-color="#0892A7"/>
<stop offset="0.604167" stop-color="#FAD40E"/>
<stop offset="1" stop-color="#B4323F"/>
</linearGradient>
</defs>
</svg>
