<svg width="191" height="64" viewBox="0 0 191 64" fill="none" xmlns="http://www.w3.org/2000/svg">
<g filter="url(#filter0_d_756_329)">
<rect x="4" y="0.847656" width="182.82" height="55.1524" rx="27.5762" fill="url(#paint0_linear_756_329)"/>
<rect x="4.5" y="1.34766" width="181.82" height="54.1524" rx="27.0762" stroke="url(#paint1_linear_756_329)"/>
<path d="M45.9732 20.8039C49.0332 20.8039 51.6732 22.7239 51.9932 25.8439H48.9932C48.6132 24.2439 47.4532 23.4439 45.9732 23.4439C43.3732 23.4439 42.0932 25.5439 42.0932 28.3439C42.0932 30.8439 43.2332 33.1239 45.9732 33.1239C47.9732 33.1239 49.1732 32.1039 49.3732 30.0439H46.2132V27.7039H52.2132V35.4239H50.2132L49.8932 33.8039C48.8532 35.1439 47.4932 35.7639 45.9732 35.7639C41.6132 35.7639 38.9532 32.5039 38.9532 28.3439C38.9532 24.1039 41.5532 20.8039 45.9732 20.8039ZM59.229 24.8039C61.869 24.8039 63.469 26.4639 64.029 28.5839C64.209 29.2639 64.269 29.9039 64.269 30.4039L64.249 30.9439H56.789C56.869 32.7239 57.749 33.5639 59.309 33.5639C60.389 33.5639 61.349 32.9439 61.569 32.2239H64.069C63.289 34.5639 61.709 35.7039 59.229 35.7039C55.949 35.7039 53.949 33.4439 53.949 30.2639C53.949 27.1439 56.109 24.8039 59.229 24.8039ZM56.789 29.1439H61.409C61.129 27.5839 60.449 26.9439 59.129 26.9439C57.789 26.9439 56.909 27.7839 56.789 29.1439ZM66.6934 21.9839H69.5334V25.0839H71.6134V26.9839H69.5334V32.1039C69.5334 33.0639 69.7734 33.3039 70.7334 33.3039C71.0534 33.3039 71.3734 33.2839 71.6134 33.2239V35.4439C71.1334 35.5239 70.4934 35.5439 69.9334 35.5439C67.7934 35.5439 66.6934 34.8839 66.6934 33.0439V26.9839H64.9734V25.0839H66.6934V21.9839ZM78.831 21.1439H81.951L87.911 30.7239H87.9511V21.1439H90.8911V35.4239H87.7511L81.811 25.8639H81.771V35.4239H78.831V21.1439ZM98.3753 24.8039C101.655 24.8039 103.735 26.9839 103.735 30.2639C103.735 33.6039 101.555 35.7039 98.3753 35.7039C95.1153 35.7039 93.0353 33.5239 93.0353 30.2639C93.0353 26.9639 95.1353 24.8039 98.3753 24.8039ZM95.8753 30.2639C95.8753 32.3639 96.7553 33.5639 98.3753 33.5639C100.055 33.5639 100.895 32.3039 100.895 30.2639C100.895 28.5839 100.315 26.9439 98.3553 26.9439C96.7753 26.9439 95.8753 28.1439 95.8753 30.2639ZM106.342 21.9839H109.182V25.0839H111.262V26.9839H109.182V32.1039C109.182 33.0639 109.422 33.3039 110.382 33.3039C110.702 33.3039 111.022 33.2839 111.262 33.2239V35.4439C110.782 35.5239 110.142 35.5439 109.582 35.5439C107.442 35.5439 106.342 34.8839 106.342 33.0439V26.9839H104.622V25.0839H106.342V21.9839ZM112.693 21.1439H115.533V23.4839H112.693V21.1439ZM112.693 25.0839H115.533V35.4239H112.693V25.0839ZM121.229 35.4239H118.389V26.9839H116.689V25.0839H118.389V24.3239C118.389 22.1639 119.869 21.1439 121.849 21.1439C122.049 21.1439 122.509 21.1639 123.349 21.2239V23.3439C122.989 23.3039 122.629 23.2839 122.329 23.2839C121.549 23.2839 121.229 23.6039 121.229 24.4839V25.0839H123.189V26.9839H121.229V35.4239ZM124.909 21.1439H127.749V23.4839H124.909V21.1439ZM124.909 25.0839H127.749V35.4239H124.909V25.0839ZM134.776 24.8039C137.416 24.8039 139.016 26.4639 139.576 28.5839C139.756 29.2639 139.816 29.9039 139.816 30.4039L139.796 30.9439H132.336C132.416 32.7239 133.296 33.5639 134.856 33.5639C135.936 33.5639 136.896 32.9439 137.116 32.2239H139.616C138.836 34.5639 137.256 35.7039 134.776 35.7039C131.496 35.7039 129.496 33.4439 129.496 30.2639C129.496 27.1439 131.656 24.8039 134.776 24.8039ZM132.336 29.1439H136.956C136.676 27.5839 135.996 26.9439 134.676 26.9439C133.336 26.9439 132.456 27.7839 132.336 29.1439ZM148.72 21.1439H151.56V35.4239H148.86V34.1039H148.82C148.2 35.1639 147.1 35.7039 145.68 35.7039C142.6 35.7039 141.04 33.1039 141.04 30.1639C141.04 27.3039 142.64 24.8039 145.62 24.8039C146.86 24.8039 148.06 25.3439 148.68 26.3439H148.72V21.1439ZM143.88 30.2439C143.88 31.8839 144.64 33.5639 146.38 33.5639C148 33.5639 148.82 32.3039 148.82 30.2239C148.82 28.3439 148.1 26.9439 146.36 26.9439C144.74 26.9439 143.88 28.2439 143.88 30.2439Z" fill="black"/>
</g>
<defs>
<filter id="filter0_d_756_329" x="0" y="0.847656" width="190.82" height="63.1525" filterUnits="userSpaceOnUse" color-interpolation-filters="sRGB">
<feFlood flood-opacity="0" result="BackgroundImageFix"/>
<feColorMatrix in="SourceAlpha" type="matrix" values="0 0 0 0 0 0 0 0 0 0 0 0 0 0 0 0 0 0 127 0" result="hardAlpha"/>
<feOffset dy="4"/>
<feGaussianBlur stdDeviation="2"/>
<feComposite in2="hardAlpha" operator="out"/>
<feColorMatrix type="matrix" values="0 0 0 0 0 0 0 0 0 0 0 0 0 0 0 0 0 0 0.15 0"/>
<feBlend mode="normal" in2="BackgroundImageFix" result="effect1_dropShadow_756_329"/>
<feBlend mode="normal" in="SourceGraphic" in2="effect1_dropShadow_756_329" result="shape"/>
</filter>
<linearGradient id="paint0_linear_756_329" x1="-403.83" y1="-186.883" x2="-44.7991" y2="264.251" gradientUnits="userSpaceOnUse">
<stop stop-color="#979797"/>
<stop offset="1" stop-color="white"/>
</linearGradient>
<linearGradient id="paint1_linear_756_329" x1="-221.009" y1="-18.5578" x2="407.921" y2="393.572" gradientUnits="userSpaceOnUse">
<stop offset="0.287477" stop-color="#67943F"/>
<stop offset="0.480959" stop-color="#0892A7"/>
<stop offset="0.604167" stop-color="#FAD40E"/>
<stop offset="1" stop-color="#B4323F"/>
</linearGradient>
</defs>
</svg>
