<svg width="200" height="62" viewBox="0 0 200 62" fill="none" xmlns="http://www.w3.org/2000/svg">
<g filter="url(#filter0_d_753_185)">
<rect x="4" width="192" height="54" rx="27" fill="url(#paint0_linear_753_185)"/>
<rect x="4.5" y="0.5" width="191" height="53" rx="26.5" stroke="url(#paint1_linear_753_185)"/>
<path d="M37.4933 19.72H40.6333V25.2H46.4133V19.72H49.5533V34H46.4133V27.84H40.6333V34H37.4933V19.72ZM57.0375 23.38C60.3175 23.38 62.3975 25.56 62.3975 28.84C62.3975 32.18 60.2175 34.28 57.0375 34.28C53.7775 34.28 51.6975 32.1 51.6975 28.84C51.6975 25.54 53.7975 23.38 57.0375 23.38ZM54.5375 28.84C54.5375 30.94 55.4175 32.14 57.0375 32.14C58.7175 32.14 59.5575 30.88 59.5575 28.84C59.5575 27.16 58.9775 25.52 57.0175 25.52C55.4375 25.52 54.5375 26.72 54.5375 28.84ZM63.2841 23.66H66.2841L68.1841 30.68H68.2241L69.9441 23.66H72.7041L74.4641 30.66H74.5041L76.4041 23.66H79.3241L76.0641 34H73.1441L71.3041 27.06H71.2641L69.5041 34H66.5641L63.2841 23.66ZM86.3995 19.72H89.5395V34H86.3995V19.72ZM92.758 20.56H95.598V23.66H97.678V25.56H95.598V30.68C95.598 31.64 95.838 31.88 96.798 31.88C97.118 31.88 97.438 31.86 97.678 31.8V34.02C97.198 34.1 96.558 34.12 95.998 34.12C93.858 34.12 92.758 33.46 92.758 31.62V25.56H91.038V23.66H92.758V20.56ZM103.576 19.72H106.716L108.976 29.44H109.016L111.496 19.72H114.436L116.876 29.56H116.916L119.256 19.72H122.336L118.496 34H115.376L112.956 24.28H112.916L110.536 34H107.356L103.576 19.72ZM127.76 23.38C131.04 23.38 133.12 25.56 133.12 28.84C133.12 32.18 130.94 34.28 127.76 34.28C124.5 34.28 122.42 32.1 122.42 28.84C122.42 25.54 124.52 23.38 127.76 23.38ZM125.26 28.84C125.26 30.94 126.14 32.14 127.76 32.14C129.44 32.14 130.28 30.88 130.28 28.84C130.28 27.16 129.7 25.52 127.74 25.52C126.16 25.52 125.26 26.72 125.26 28.84ZM141.007 23.38C141.287 23.38 141.487 23.44 141.627 23.48V26.12C141.347 26.06 141.007 26.02 140.607 26.02C138.547 26.02 137.807 27.48 137.807 29.34V34H134.967V23.66H137.667V25.58H137.707C138.247 24.28 139.587 23.38 141.007 23.38ZM143 19.72H145.84V27.38L149.42 23.66H152.78L148.88 27.46L153.22 34H149.78L146.94 29.38L145.84 30.44V34H143V19.72ZM158.465 23.38C161.265 23.38 162.845 24.54 163.025 26.68H160.325C160.245 25.68 159.565 25.28 158.385 25.28C157.285 25.28 156.805 25.62 156.805 26.24C156.805 26.9 157.425 27.24 159.025 27.56C161.125 27.98 161.885 28.3 162.505 28.82C163.045 29.3 163.305 29.9 163.305 30.68C163.305 33.34 161.005 34.28 158.585 34.28C155.765 34.28 153.805 33.08 153.725 30.64H156.425C156.425 31.8 157.425 32.38 158.605 32.38C159.565 32.38 160.465 31.96 160.465 31.06C160.465 30.3 159.585 29.94 157.345 29.48C154.945 28.98 153.965 28.16 153.965 26.7C153.965 24.5 155.565 23.38 158.465 23.38Z" fill="black"/>
</g>
<defs>
<filter id="filter0_d_753_185" x="0" y="0" width="200" height="62" filterUnits="userSpaceOnUse" color-interpolation-filters="sRGB">
<feFlood flood-opacity="0" result="BackgroundImageFix"/>
<feColorMatrix in="SourceAlpha" type="matrix" values="0 0 0 0 0 0 0 0 0 0 0 0 0 0 0 0 0 0 127 0" result="hardAlpha"/>
<feOffset dy="4"/>
<feGaussianBlur stdDeviation="2"/>
<feComposite in2="hardAlpha" operator="out"/>
<feColorMatrix type="matrix" values="0 0 0 0 0 0 0 0 0 0 0 0 0 0 0 0 0 0 0.15 0"/>
<feBlend mode="normal" in2="BackgroundImageFix" result="effect1_dropShadow_753_185"/>
<feBlend mode="normal" in="SourceGraphic" in2="effect1_dropShadow_753_185" result="shape"/>
</filter>
<linearGradient id="paint0_linear_753_185" x1="-424.308" y1="-183.808" x2="-79.066" y2="281.506" gradientUnits="userSpaceOnUse">
<stop stop-color="#979797"/>
<stop offset="1" stop-color="white"/>
</linearGradient>
<linearGradient id="paint1_linear_753_185" x1="-232.308" y1="-19" x2="399.627" y2="425.173" gradientUnits="userSpaceOnUse">
<stop stop-color="#67943F"/>
<stop offset="0.307292" stop-color="#0892A7"/>
<stop offset="0.604167" stop-color="#FAD40E"/>
<stop offset="1" stop-color="#B4323F"/>
</linearGradient>
</defs>
</svg>
