<svg width="20" height="19" viewBox="0 0 20 19" fill="none" xmlns="http://www.w3.org/2000/svg">
<path d="M1.5625 9.42578L17.3125 0.425781C17.6641 0.214844 18.1562 0.214844 18.5078 0.460938C18.8594 0.707031 19.0352 1.12891 18.9648 1.55078L16.7148 16.1758C16.6094 16.8789 15.8359 17.3359 15.168 17.0547L10.8086 15.2266L8.62891 17.8633C8.41797 18.1094 8.10156 18.25 7.75 18.25C7.11719 18.25 6.625 17.7578 6.625 17.125V13.4688L1.66797 11.4297C0.824219 11.0781 0.753906 9.88281 1.5625 9.42578ZM3.39062 10.3047L7.71484 12.0977L7.67969 12.0625L15.3789 3.44922L3.39062 10.3047ZM15.168 15.2266L16.8203 4.36328L9.29688 12.7656L15.168 15.2266Z" fill="black"/>
</svg>
