<svg width="281" height="60" viewBox="0 0 281 60" fill="none" xmlns="http://www.w3.org/2000/svg">
<g filter="url(#filter0_d_756_312)">
<rect x="4" width="273" height="52" rx="26" fill="url(#paint0_linear_756_312)"/>
<rect x="4.5" y="0.5" width="272" height="51" rx="25.5" stroke="#DC8F24"/>
<path d="M37.5831 18.72H42.0031L45.3431 28.54H45.3831L48.5431 18.72H52.9631V33H50.0231V22.88H49.9831L46.4831 33H44.0631L40.5631 22.98H40.5231V33H37.5831V18.72ZM60.4477 22.38C63.7277 22.38 65.8077 24.56 65.8077 27.84C65.8077 31.18 63.6277 33.28 60.4477 33.28C57.1877 33.28 55.1077 31.1 55.1077 27.84C55.1077 24.54 57.2077 22.38 60.4477 22.38ZM57.9477 27.84C57.9477 29.94 58.8277 31.14 60.4477 31.14C62.1277 31.14 62.9677 29.88 62.9677 27.84C62.9677 26.16 62.3877 24.52 60.4277 24.52C58.8477 24.52 57.9477 25.72 57.9477 27.84ZM73.6942 22.38C73.9742 22.38 74.1742 22.44 74.3142 22.48V25.12C74.0342 25.06 73.6942 25.02 73.2942 25.02C71.2342 25.02 70.4942 26.48 70.4942 28.34V33H67.6542V22.66H70.3542V24.58H70.3942C70.9342 23.28 72.2742 22.38 73.6942 22.38ZM79.8561 22.38C82.4961 22.38 84.0961 24.04 84.6561 26.16C84.8361 26.84 84.8961 27.48 84.8961 27.98L84.8761 28.52H77.4161C77.4961 30.3 78.3761 31.14 79.9361 31.14C81.0161 31.14 81.9761 30.52 82.1961 29.8H84.6961C83.9161 32.14 82.3361 33.28 79.8561 33.28C76.5761 33.28 74.5761 31.02 74.5761 27.84C74.5761 24.72 76.7361 22.38 79.8561 22.38ZM77.4161 26.72H82.0361C81.7561 25.16 81.0761 24.52 79.7561 24.52C78.4161 24.52 77.5361 25.36 77.4161 26.72ZM97.3469 18.38C100.407 18.38 103.067 19.74 103.067 22.98H100.027C99.9269 21.54 99.0869 20.82 97.2269 20.82C96.0669 20.82 95.0469 21.32 95.0469 22.44C95.0469 23.48 95.6469 23.66 98.8469 24.48C99.5069 24.64 100.247 24.82 100.887 25.08C102.367 25.68 103.547 26.8 103.547 28.76C103.547 31.46 101.407 33.34 97.6069 33.34C94.6269 33.34 91.5269 31.9 91.5269 28.36V28.26H94.5669C94.5669 30.28 96.2269 30.9 97.7069 30.9C99.1469 30.9 100.507 30.42 100.507 29.12C100.507 28.22 99.7669 27.64 98.0069 27.2C96.9469 26.92 96.0469 26.72 95.1269 26.42C92.9669 25.7 92.0069 24.5 92.0069 22.68C92.0069 19.8 94.7269 18.38 97.3469 18.38ZM105.115 22.66H107.955V28.52C107.955 30.1 108.375 31.04 109.775 31.04C111.335 31.04 111.975 30.14 111.975 28.1V22.66H114.815V33H112.115V31.56H112.055C111.335 32.72 110.135 33.28 108.875 33.28C106.175 33.28 105.115 31.92 105.115 29.08V22.66ZM121.931 22.38C124.571 22.38 126.631 23.82 126.791 26.3H124.011C123.831 25.12 123.091 24.52 121.911 24.52C120.191 24.52 119.491 26.2 119.491 27.88C119.491 29.58 120.191 31.14 121.851 31.14C123.111 31.14 123.911 30.38 124.111 29.04H126.851C126.471 31.76 124.631 33.28 121.871 33.28C118.651 33.28 116.651 30.98 116.651 27.98C116.651 24.68 118.651 22.38 121.931 22.38ZM133.415 22.38C136.055 22.38 138.115 23.82 138.275 26.3H135.495C135.315 25.12 134.575 24.52 133.395 24.52C131.675 24.52 130.975 26.2 130.975 27.88C130.975 29.58 131.675 31.14 133.335 31.14C134.595 31.14 135.395 30.38 135.595 29.04H138.335C137.955 31.76 136.115 33.28 133.355 33.28C130.135 33.28 128.135 30.98 128.135 27.98C128.135 24.68 130.135 22.38 133.415 22.38ZM144.719 22.38C147.359 22.38 148.959 24.04 149.519 26.16C149.699 26.84 149.759 27.48 149.759 27.98L149.739 28.52H142.279C142.359 30.3 143.239 31.14 144.799 31.14C145.879 31.14 146.839 30.52 147.059 29.8H149.559C148.779 32.14 147.199 33.28 144.719 33.28C141.439 33.28 139.439 31.02 139.439 27.84C139.439 24.72 141.599 22.38 144.719 22.38ZM142.279 26.72H146.899C146.619 25.16 145.939 24.52 144.619 24.52C143.279 24.52 142.399 25.36 142.279 26.72ZM155.664 22.38C158.464 22.38 160.044 23.54 160.224 25.68H157.524C157.444 24.68 156.764 24.28 155.584 24.28C154.484 24.28 154.004 24.62 154.004 25.24C154.004 25.9 154.624 26.24 156.224 26.56C158.324 26.98 159.084 27.3 159.704 27.82C160.244 28.3 160.504 28.9 160.504 29.68C160.504 32.34 158.204 33.28 155.784 33.28C152.964 33.28 151.004 32.08 150.924 29.64H153.624C153.624 30.8 154.624 31.38 155.804 31.38C156.764 31.38 157.664 30.96 157.664 30.06C157.664 29.3 156.784 28.94 154.544 28.48C152.144 27.98 151.164 27.16 151.164 25.7C151.164 23.5 152.764 22.38 155.664 22.38ZM166.406 22.38C169.206 22.38 170.786 23.54 170.966 25.68H168.266C168.186 24.68 167.506 24.28 166.326 24.28C165.226 24.28 164.746 24.62 164.746 25.24C164.746 25.9 165.366 26.24 166.966 26.56C169.066 26.98 169.826 27.3 170.446 27.82C170.986 28.3 171.246 28.9 171.246 29.68C171.246 32.34 168.946 33.28 166.526 33.28C163.706 33.28 161.746 32.08 161.666 29.64H164.366C164.366 30.8 165.366 31.38 166.546 31.38C167.506 31.38 168.406 30.96 168.406 30.06C168.406 29.3 167.526 28.94 165.286 28.48C162.886 27.98 161.906 27.16 161.906 25.7C161.906 23.5 163.506 22.38 166.406 22.38ZM183.695 18.38C186.755 18.38 189.415 19.74 189.415 22.98H186.375C186.275 21.54 185.435 20.82 183.575 20.82C182.415 20.82 181.395 21.32 181.395 22.44C181.395 23.48 181.995 23.66 185.195 24.48C185.855 24.64 186.595 24.82 187.235 25.08C188.715 25.68 189.895 26.8 189.895 28.76C189.895 31.46 187.755 33.34 183.955 33.34C180.975 33.34 177.875 31.9 177.875 28.36V28.26H180.915C180.915 30.28 182.575 30.9 184.055 30.9C185.495 30.9 186.855 30.42 186.855 29.12C186.855 28.22 186.115 27.64 184.355 27.2C183.295 26.92 182.395 26.72 181.475 26.42C179.315 25.7 178.355 24.5 178.355 22.68C178.355 19.8 181.075 18.38 183.695 18.38ZM192.223 19.56H195.063V22.66H197.143V24.56H195.063V29.68C195.063 30.64 195.303 30.88 196.263 30.88C196.583 30.88 196.903 30.86 197.143 30.8V33.02C196.663 33.1 196.023 33.12 195.463 33.12C193.323 33.12 192.223 32.46 192.223 30.62V24.56H190.503V22.66H192.223V19.56ZM203.514 22.38C206.794 22.38 208.874 24.56 208.874 27.84C208.874 31.18 206.694 33.28 203.514 33.28C200.254 33.28 198.174 31.1 198.174 27.84C198.174 24.54 200.274 22.38 203.514 22.38ZM201.014 27.84C201.014 29.94 201.894 31.14 203.514 31.14C205.194 31.14 206.034 29.88 206.034 27.84C206.034 26.16 205.454 24.52 203.494 24.52C201.914 24.52 201.014 25.72 201.014 27.84ZM216.761 22.38C217.041 22.38 217.241 22.44 217.381 22.48V25.12C217.101 25.06 216.761 25.02 216.361 25.02C214.301 25.02 213.561 26.48 213.561 28.34V33H210.721V22.66H213.421V24.58H213.461C214.001 23.28 215.341 22.38 216.761 22.38ZM218.574 18.72H221.414V21.06H218.574V18.72ZM218.574 22.66H221.414V33H218.574V22.66ZM228.43 22.38C231.07 22.38 232.67 24.04 233.23 26.16C233.41 26.84 233.47 27.48 233.47 27.98L233.45 28.52H225.99C226.07 30.3 226.95 31.14 228.51 31.14C229.59 31.14 230.55 30.52 230.77 29.8H233.27C232.49 32.14 230.91 33.28 228.43 33.28C225.15 33.28 223.15 31.02 223.15 27.84C223.15 24.72 225.31 22.38 228.43 22.38ZM225.99 26.72H230.61C230.33 25.16 229.65 24.52 228.33 24.52C226.99 24.52 226.11 25.36 225.99 26.72ZM239.375 22.38C242.175 22.38 243.755 23.54 243.935 25.68H241.235C241.155 24.68 240.475 24.28 239.295 24.28C238.195 24.28 237.715 24.62 237.715 25.24C237.715 25.9 238.335 26.24 239.935 26.56C242.035 26.98 242.795 27.3 243.415 27.82C243.955 28.3 244.215 28.9 244.215 29.68C244.215 32.34 241.915 33.28 239.495 33.28C236.675 33.28 234.715 32.08 234.635 29.64H237.335C237.335 30.8 238.335 31.38 239.515 31.38C240.475 31.38 241.375 30.96 241.375 30.06C241.375 29.3 240.495 28.94 238.255 28.48C235.855 27.98 234.875 27.16 234.875 25.7C234.875 23.5 236.475 22.38 239.375 22.38Z" fill="white"/>
</g>
<defs>
<filter id="filter0_d_756_312" x="0" y="0" width="281" height="60" filterUnits="userSpaceOnUse" color-interpolation-filters="sRGB">
<feFlood flood-opacity="0" result="BackgroundImageFix"/>
<feColorMatrix in="SourceAlpha" type="matrix" values="0 0 0 0 0 0 0 0 0 0 0 0 0 0 0 0 0 0 127 0" result="hardAlpha"/>
<feOffset dy="4"/>
<feGaussianBlur stdDeviation="2"/>
<feComposite in2="hardAlpha" operator="out"/>
<feColorMatrix type="matrix" values="0 0 0 0 0 0 0 0 0 0 0 0 0 0 0 0 0 0 0.25 0"/>
<feBlend mode="normal" in2="BackgroundImageFix" result="effect1_dropShadow_756_312"/>
<feBlend mode="normal" in="SourceGraphic" in2="effect1_dropShadow_756_312" result="shape"/>
</filter>
<linearGradient id="paint0_linear_756_312" x1="18" y1="11" x2="188.371" y2="281.983" gradientUnits="userSpaceOnUse">
<stop/>
<stop offset="1" stop-color="#979797"/>
</linearGradient>
</defs>
</svg>
