<svg width="228" height="60" viewBox="0 0 228 60" fill="none" xmlns="http://www.w3.org/2000/svg">
<g filter="url(#filter0_d_530_460)">
<rect x="4" width="220" height="52" rx="26" fill="url(#paint0_linear_530_460)"/>
<rect x="4.5" y="0.5" width="219" height="51" rx="25.5" stroke="url(#paint1_linear_530_460)"/>
<g filter="url(#filter1_d_530_460)">
<path d="M36.4526 18.72H39.5926L41.8526 28.44H41.8926L44.3726 18.72H47.3126L49.7526 28.56H49.7926L52.1326 18.72H55.2126L51.3726 33H48.2526L45.8326 23.28H45.7926L43.4126 33H40.2326L36.4526 18.72ZM60.3771 22.38C63.3971 22.38 64.8971 23.4 64.8971 25.32V30.8C64.8971 31.62 64.9971 32.58 65.2571 33H62.3771C62.2771 32.68 62.1971 32.34 62.1771 32C61.3771 32.84 60.1571 33.28 58.6971 33.28C56.5771 33.28 55.1771 32.18 55.1771 30.18C55.1771 28.68 55.8971 27.7 57.5571 27.26C58.6171 26.98 59.9571 26.92 60.8371 26.74C61.6771 26.56 62.0571 26.28 62.0571 25.66C62.0571 24.48 61.1971 24.28 60.2371 24.28C59.0571 24.28 58.4371 24.76 58.3371 25.84H55.4971C55.6171 23.58 57.4771 22.38 60.3771 22.38ZM58.0171 30.06C58.0171 30.88 58.5171 31.38 59.7571 31.38C61.2771 31.38 62.0571 30.56 62.0571 29.04V27.94C61.7971 28.18 61.2971 28.32 60.3371 28.44C58.8771 28.62 58.0171 28.98 58.0171 30.06ZM67.8615 19.56H70.7015V22.66H72.7815V24.56H70.7015V29.68C70.7015 30.64 70.9415 30.88 71.9015 30.88C72.2215 30.88 72.5415 30.86 72.7815 30.8V33.02C72.3015 33.1 71.6615 33.12 71.1015 33.12C68.9615 33.12 67.8615 32.46 67.8615 30.62V24.56H66.1415V22.66H67.8615V19.56ZM79.0927 22.38C81.7327 22.38 83.7927 23.82 83.9527 26.3H81.1727C80.9927 25.12 80.2527 24.52 79.0727 24.52C77.3527 24.52 76.6527 26.2 76.6527 27.88C76.6527 29.58 77.3527 31.14 79.0127 31.14C80.2727 31.14 81.0727 30.38 81.2727 29.04H84.0127C83.6327 31.76 81.7927 33.28 79.0327 33.28C75.8127 33.28 73.8127 30.98 73.8127 27.98C73.8127 24.68 75.8127 22.38 79.0927 22.38ZM85.6171 18.72H88.4571V24.1H88.5171C89.1571 23.04 90.3571 22.38 91.5571 22.38C94.1771 22.38 95.3171 23.68 95.3171 26.54V33H92.4771V27.12C92.4771 25.44 91.9771 24.62 90.6571 24.62C88.9171 24.62 88.4571 25.76 88.4571 27.58V33H85.6171V18.72ZM103.799 19.56H106.639V22.66H108.719V24.56H106.639V29.68C106.639 30.64 106.879 30.88 107.839 30.88C108.159 30.88 108.479 30.86 108.719 30.8V33.02C108.239 33.1 107.599 33.12 107.039 33.12C104.899 33.12 103.799 32.46 103.799 30.62V24.56H102.079V22.66H103.799V19.56ZM110.07 18.72H112.91V24.1H112.97C113.61 23.04 114.81 22.38 116.01 22.38C118.63 22.38 119.77 23.68 119.77 26.54V33H116.93V27.12C116.93 25.44 116.43 24.62 115.11 24.62C113.37 24.62 112.91 25.76 112.91 27.58V33H110.07V18.72ZM126.706 22.38C129.346 22.38 130.946 24.04 131.506 26.16C131.686 26.84 131.746 27.48 131.746 27.98L131.726 28.52H124.266C124.346 30.3 125.226 31.14 126.786 31.14C127.866 31.14 128.826 30.52 129.046 29.8H131.546C130.766 32.14 129.186 33.28 126.706 33.28C123.426 33.28 121.426 31.02 121.426 27.84C121.426 24.72 123.586 22.38 126.706 22.38ZM124.266 26.72H128.886C128.606 25.16 127.926 24.52 126.606 24.52C125.266 24.52 124.386 25.36 124.266 26.72ZM137.736 18.72H140.976L144.156 28.76H144.196L147.416 18.72H150.656L145.916 33H142.376L137.736 18.72ZM151.674 18.72H154.514V21.06H151.674V18.72ZM151.674 22.66H154.514V33H151.674V22.66ZM163.99 18.72H166.83V33H164.13V31.68H164.09C163.47 32.74 162.37 33.28 160.95 33.28C157.87 33.28 156.31 30.68 156.31 27.74C156.31 24.88 157.91 22.38 160.89 22.38C162.13 22.38 163.33 22.92 163.95 23.92H163.99V18.72ZM159.15 27.82C159.15 29.46 159.91 31.14 161.65 31.14C163.27 31.14 164.09 29.88 164.09 27.8C164.09 25.92 163.37 24.52 161.63 24.52C160.01 24.52 159.15 25.82 159.15 27.82ZM173.756 22.38C176.396 22.38 177.996 24.04 178.556 26.16C178.736 26.84 178.796 27.48 178.796 27.98L178.776 28.52H171.316C171.396 30.3 172.276 31.14 173.836 31.14C174.916 31.14 175.876 30.52 176.096 29.8H178.596C177.816 32.14 176.236 33.28 173.756 33.28C170.476 33.28 168.476 31.02 168.476 27.84C168.476 24.72 170.636 22.38 173.756 22.38ZM171.316 26.72H175.936C175.656 25.16 174.976 24.52 173.656 24.52C172.316 24.52 171.436 25.36 171.316 26.72ZM185.481 22.38C188.761 22.38 190.841 24.56 190.841 27.84C190.841 31.18 188.661 33.28 185.481 33.28C182.221 33.28 180.141 31.1 180.141 27.84C180.141 24.54 182.241 22.38 185.481 22.38ZM182.981 27.84C182.981 29.94 183.861 31.14 185.481 31.14C187.161 31.14 188.001 29.88 188.001 27.84C188.001 26.16 187.421 24.52 185.461 24.52C183.881 24.52 182.981 25.72 182.981 27.84Z" fill="white"/>
</g>
</g>
<defs>
<filter id="filter0_d_530_460" x="0" y="0" width="228" height="60" filterUnits="userSpaceOnUse" color-interpolation-filters="sRGB">
<feFlood flood-opacity="0" result="BackgroundImageFix"/>
<feColorMatrix in="SourceAlpha" type="matrix" values="0 0 0 0 0 0 0 0 0 0 0 0 0 0 0 0 0 0 127 0" result="hardAlpha"/>
<feOffset dy="4"/>
<feGaussianBlur stdDeviation="2"/>
<feComposite in2="hardAlpha" operator="out"/>
<feColorMatrix type="matrix" values="0 0 0 0 0 0 0 0 0 0 0 0 0 0 0 0 0 0 0.25 0"/>
<feBlend mode="normal" in2="BackgroundImageFix" result="effect1_dropShadow_530_460"/>
<feBlend mode="normal" in="SourceGraphic" in2="effect1_dropShadow_530_460" result="shape"/>
</filter>
<filter id="filter1_d_530_460" x="32.4526" y="18.72" width="162.388" height="22.5601" filterUnits="userSpaceOnUse" color-interpolation-filters="sRGB">
<feFlood flood-opacity="0" result="BackgroundImageFix"/>
<feColorMatrix in="SourceAlpha" type="matrix" values="0 0 0 0 0 0 0 0 0 0 0 0 0 0 0 0 0 0 127 0" result="hardAlpha"/>
<feOffset dy="4"/>
<feGaussianBlur stdDeviation="2"/>
<feComposite in2="hardAlpha" operator="out"/>
<feColorMatrix type="matrix" values="0 0 0 0 0 0 0 0 0 0 0 0 0 0 0 0 0 0 0.25 0"/>
<feBlend mode="normal" in2="BackgroundImageFix" result="effect1_dropShadow_530_460"/>
<feBlend mode="normal" in="SourceGraphic" in2="effect1_dropShadow_530_460" result="shape"/>
</filter>
<linearGradient id="paint0_linear_530_460" x1="15.2821" y1="11" x2="198.652" y2="246.037" gradientUnits="userSpaceOnUse">
<stop/>
<stop offset="1" stop-color="#979797"/>
</linearGradient>
<linearGradient id="paint1_linear_530_460" x1="224" y1="33.5" x2="-36.1531" y2="-283.438" gradientUnits="userSpaceOnUse">
<stop stop-color="#67943F"/>
<stop offset="0.357328" stop-color="#0892A7"/>
<stop offset="0.604167" stop-color="#FAD40E"/>
<stop offset="1" stop-color="#B4323F"/>
</linearGradient>
</defs>
</svg>
