<?xml version="1.0" encoding="UTF-8"?><svg xmlns="http://www.w3.org/2000/svg" viewBox="0 0 244.33 95.21"><defs><style>.cls-1{fill:#f9d40d;}.cls-2{fill:#67943f;}.cls-3{fill:#b53240;}.cls-4{fill:#0792a7;}.cls-5{fill:#37373a;}.cls-6,.cls-7{fill:#56565b;}.cls-7{mix-blend-mode:multiply;}.cls-8{isolation:isolate;}</style></defs><g class="cls-8"><g id="Layer_1"><rect class="cls-4" x="12.6" y="36.22" width="46.26" height="22.49"/><path class="cls-7" d="M228.12,32.01c-3.41-3.27-8.45-9.26-18.93-9.26-13.35,0-24.52,11.03-24.52,24.93s10.9,24.79,24.52,24.79c7.9,0,14.85-4.5,19.34-10.08,1.36,1.36,14.44,14.71,15.8,16.07-6.27,6.81-18.39,16.75-35.14,16.75-25.61,0-47.95-20.02-47.95-47.54S183.17,0,209.19,0c17.16,0,28.47,8.99,34.87,15.53-1.09,1.09-14.17,14.71-15.94,16.48Z"/><path class="cls-3" d="M209.19,72.47c7.9,0,14.85-4.5,19.34-10.08,.7,.7,4.46,4.54,8.16,8.3s6.98,7.11,7.64,7.77c-6.27,6.81-18.39,16.75-35.14,16.75v-22.75Z"/><rect class="cls-2" x="101.69" y="12.46" width="23.31" height="43.04" transform="translate(79.37 147.32) rotate(-90)"/><path class="cls-6" d="M75.67,92.93V2.01h46.62c17.58,0,31.62,14.59,31.62,31.9s-13.63,31.76-31.62,31.76h-23.31v27.26h-23.31Zm23.31-49.62h23.31c4.91,0,9-4.23,9-9.27s-3.82-9.41-9-9.41h-23.31v18.67Z"/><path class="cls-1" d="M145.73,92.94V2.02h23.58V92.94h-23.58Z"/><path class="cls-6" d="M22.9,58.82v11.72h49.33v22.49H0V2.11H72.25V24.6H22.9v11.86"/><g><path class="cls-5" d="M169.31,74.14c-5.06-7.46-8.06-16.54-8.06-26.63s2.99-19.19,8.06-26.71"/><path class="cls-5" d="M145.73,12.69c5.1,5.7,8.19,13.22,8.19,21.34s-3.06,15.48-8.19,21.22"/></g></g></g></svg>