<svg width="187" height="62" viewBox="0 0 187 62" fill="none" xmlns="http://www.w3.org/2000/svg">
<g filter="url(#filter0_d_146_114)">
<rect x="4" width="179" height="54" rx="27" fill="url(#paint0_linear_146_114)"/>
<rect x="4.5" y="0.5" width="178" height="53" rx="26.5" stroke="url(#paint1_linear_146_114)"/>
<path d="M37.4679 19.72H41.8879L45.2279 29.54H45.2679L48.4279 19.72H52.8479V34H49.9079V23.88H49.8679L46.3679 34H43.9479L40.4479 23.98H40.4079V34H37.4679V19.72ZM60.3324 23.38C63.6124 23.38 65.6924 25.56 65.6924 28.84C65.6924 32.18 63.5124 34.28 60.3324 34.28C57.0724 34.28 54.9924 32.1 54.9924 28.84C54.9924 25.54 57.0924 23.38 60.3324 23.38ZM57.8324 28.84C57.8324 30.94 58.7124 32.14 60.3324 32.14C62.0124 32.14 62.8524 30.88 62.8524 28.84C62.8524 27.16 62.2724 25.52 60.3124 25.52C58.7324 25.52 57.8324 26.72 57.8324 28.84ZM73.579 23.38C73.859 23.38 74.059 23.44 74.199 23.48V26.12C73.919 26.06 73.579 26.02 73.179 26.02C71.119 26.02 70.379 27.48 70.379 29.34V34H67.539V23.66H70.239V25.58H70.279C70.819 24.28 72.159 23.38 73.579 23.38ZM79.7409 23.38C82.3809 23.38 83.9809 25.04 84.5409 27.16C84.7209 27.84 84.7809 28.48 84.7809 28.98L84.7609 29.52H77.3009C77.3809 31.3 78.2609 32.14 79.8209 32.14C80.9009 32.14 81.8609 31.52 82.0809 30.8H84.5809C83.8009 33.14 82.2209 34.28 79.7409 34.28C76.4609 34.28 74.4609 32.02 74.4609 28.84C74.4609 25.72 76.6209 23.38 79.7409 23.38ZM77.3009 27.72H81.9209C81.6409 26.16 80.9609 25.52 79.6409 25.52C78.3009 25.52 77.4209 26.36 77.3009 27.72ZM92.3116 19.72H98.7716C102.112 19.72 103.692 21.76 103.692 24.3C103.692 26.88 102.072 28.88 98.7916 28.88H95.4516V34H92.3116V19.72ZM95.4516 26.44H97.9516C99.7516 26.44 100.652 25.82 100.652 24.3C100.652 22.84 99.8116 22.16 97.9716 22.16H95.4516V26.44ZM111.391 23.38C111.671 23.38 111.871 23.44 112.011 23.48V26.12C111.731 26.06 111.391 26.02 110.991 26.02C108.931 26.02 108.191 27.48 108.191 29.34V34H105.351V23.66H108.051V25.58H108.091C108.631 24.28 109.971 23.38 111.391 23.38ZM117.885 23.38C120.905 23.38 122.405 24.4 122.405 26.32V31.8C122.405 32.62 122.505 33.58 122.765 34H119.885C119.785 33.68 119.705 33.34 119.685 33C118.885 33.84 117.665 34.28 116.205 34.28C114.085 34.28 112.685 33.18 112.685 31.18C112.685 29.68 113.405 28.7 115.065 28.26C116.125 27.98 117.465 27.92 118.345 27.74C119.185 27.56 119.565 27.28 119.565 26.66C119.565 25.48 118.705 25.28 117.745 25.28C116.565 25.28 115.945 25.76 115.845 26.84H113.005C113.125 24.58 114.985 23.38 117.885 23.38ZM115.525 31.06C115.525 31.88 116.025 32.38 117.265 32.38C118.785 32.38 119.565 31.56 119.565 30.04V28.94C119.305 29.18 118.805 29.32 117.845 29.44C116.385 29.62 115.525 29.98 115.525 31.06ZM124.689 19.72H127.529V22.06H124.689V19.72ZM124.689 23.66H127.529V34H124.689V23.66ZM134.006 23.38C136.806 23.38 138.386 24.54 138.566 26.68H135.866C135.786 25.68 135.106 25.28 133.926 25.28C132.826 25.28 132.346 25.62 132.346 26.24C132.346 26.9 132.966 27.24 134.566 27.56C136.666 27.98 137.426 28.3 138.046 28.82C138.586 29.3 138.846 29.9 138.846 30.68C138.846 33.34 136.546 34.28 134.126 34.28C131.306 34.28 129.346 33.08 129.266 30.64H131.966C131.966 31.8 132.966 32.38 134.146 32.38C135.106 32.38 136.006 31.96 136.006 31.06C136.006 30.3 135.126 29.94 132.886 29.48C130.486 28.98 129.506 28.16 129.506 26.7C129.506 24.5 131.106 23.38 134.006 23.38ZM145.288 23.38C147.928 23.38 149.528 25.04 150.088 27.16C150.268 27.84 150.328 28.48 150.328 28.98L150.308 29.52H142.848C142.928 31.3 143.808 32.14 145.368 32.14C146.448 32.14 147.408 31.52 147.628 30.8H150.128C149.348 33.14 147.768 34.28 145.288 34.28C142.008 34.28 140.008 32.02 140.008 28.84C140.008 25.72 142.168 23.38 145.288 23.38ZM142.848 27.72H147.468C147.188 26.16 146.508 25.52 145.188 25.52C143.848 25.52 142.968 26.36 142.848 27.72Z" fill="black"/>
</g>
<defs>
<filter id="filter0_d_146_114" x="0" y="0" width="187" height="62" filterUnits="userSpaceOnUse" color-interpolation-filters="sRGB">
<feFlood flood-opacity="0" result="BackgroundImageFix"/>
<feColorMatrix in="SourceAlpha" type="matrix" values="0 0 0 0 0 0 0 0 0 0 0 0 0 0 0 0 0 0 127 0" result="hardAlpha"/>
<feOffset dy="4"/>
<feGaussianBlur stdDeviation="2"/>
<feComposite in2="hardAlpha" operator="out"/>
<feColorMatrix type="matrix" values="0 0 0 0 0 0 0 0 0 0 0 0 0 0 0 0 0 0 0.15 0"/>
<feBlend mode="normal" in2="BackgroundImageFix" result="effect1_dropShadow_146_114"/>
<feBlend mode="normal" in="SourceGraphic" in2="effect1_dropShadow_146_114" result="shape"/>
</filter>
<linearGradient id="paint0_linear_146_114" x1="-395.308" y1="-183.808" x2="-43.7794" y2="257.9" gradientUnits="userSpaceOnUse">
<stop stop-color="#979797"/>
<stop offset="1" stop-color="white"/>
</linearGradient>
<linearGradient id="paint1_linear_146_114" x1="-216.308" y1="-19" x2="68.9121" y2="180.513" gradientUnits="userSpaceOnUse">
<stop stop-color="#67943F"/>
<stop offset="0.307292" stop-color="#0892A7"/>
<stop offset="0.604167" stop-color="#FAD40E"/>
<stop offset="1" stop-color="#B4323F"/>
</linearGradient>
</defs>
</svg>
